<?xml version="1.0" encoding="iso-8859-1"?>
<!-- Generator: Adobe Illustrator 18.1.1, SVG Export Plug-In . SVG Version: 6.00 Build 0)  -->
<svg xmlns="http://www.w3.org/2000/svg" xmlns:xlink="http://www.w3.org/1999/xlink" version="1.1" id="Capa_1" x="0px" y="0px" viewBox="0 0 57.92 57.92" style="enable-background:new 0 0 57.92 57.92;" xml:space="preserve" width="512px" height="512px">
<g>
	<path d="M11.735,19.727l-6.47,8.38c-0.586,0.715-1.438,1.084-2.295,1.084c-0.665,0-1.332-0.221-1.885-0.676   c-1.267-1.041-1.452-2.913-0.41-4.18l6.472-8.381c1.041-1.268,2.913-1.45,4.18-0.409C12.595,16.587,12.777,18.458,11.735,19.727z    M19.043,14.285c2.822,0,5.109-2.287,5.109-5.109s-2.287-5.109-5.109-5.109s-5.109,2.287-5.109,5.109   C13.934,11.998,16.221,14.285,19.043,14.285z M57.246,47.192c-5.015-5.802-10.028-11.603-15.041-17.404L31.72,16.972l14.313-8.346   c1.493-0.677,2.157-2.437,1.48-3.932s-2.438-2.158-3.931-1.48L14.631,18.338L6.271,28.51c-0.038,0.046-0.08,0.087-0.12,0.131   c1.231-0.541,7.553-3.327,12.442-5.585l6.021,6.021l3.419,3.836c-1.771,1.288-3.544,2.576-5.333,3.841   c-0.741,0.522-1.079,1.24-1.128,1.967c-0.046,0.196-0.074,0.404-0.074,0.632c0,4.378,0,8.756,0,13.134c0,3.313,5.139,3.313,5.139,0   c0-4.086,0.69-8.172,0.69-12.256c3.272-2.341,10.31-5.953,10.31-5.953c5.23,6.051,9.89,10.14,15.975,16.548   C55.898,53.233,59.401,49.685,57.246,47.192z" fill="lightGrey"/>
</g>
<g>
</g>
<g>
</g>
<g>
</g>
<g>
</g>
<g>
</g>
<g>
</g>
<g>
</g>
<g>
</g>
<g>
</g>
<g>
</g>
<g>
</g>
<g>
</g>
<g>
</g>
<g>
</g>
<g>
</g>
</svg>
